{"title":"Batman: The Dark Knight (THiZZoRDiEuBZs)","uid":8534484,"size":771560572,"categoryP":"video","categoryS":"movies_dvdr","magnet":"?xt=urn:btih:2246c653f5109972a82ef966a4f8c7538ae442be&amp;dn=Batman%3A+The+Dark+Knight+%28THiZZoRDiEuBZs%29&amp;tr=udp%3A%2F%2Ftracker.openbittorrent.com%3A80&amp;tr=udp%3A%2F%2Fopen.demonii.com%3A1337&amp;tr=udp%3A%2F%2Ftracker.coppersurfer.tk%3A6969&amp;tr=udp%3A%2F%2Fexodus.desync.com%3A6969","seeders":2,"leechers":0,"uploader":null,"files":1,"time":1370230025,"description":"Format : MPEG-4\nFormat profile : Base Media\nCodec ID : isom\nFile size : 736 MiB\nDuration : 2h 32mn\nOverall bit rate : 676 Kbps\nMovie name : BATMAN_THE_DARK_NIGHT\nGenre : Sci-Fi &amp; Fantasy\nWriting application : Lavf52.13.0\n\nVideo\nID : 1\nFormat : MPEG-4 Visual\nFormat profile : Simple@L1\nFormat settings, BVOP : No\nFormat settings, QPel : No\nFormat settings, GMC : No warppoints\nFormat settings, Matrix : Default (H.263)\nCodec ID : 20\nDuration : 2h 32mn\nBit rate mode : Variable\nBit rate : 544 Kbps\nWidth : 640 pixels\nHeight : 360 pixels\nDisplay aspect ratio : 16:9\nFrame rate mode : Constant\nFrame rate : 23.976 fps\nColor space : YUV\nChroma subsampling : 4:2:0\nBit depth : 8 bits\nScan type : Progressive\nBits/(Pixel*Frame) : 0.098\nStream size : 592 MiB (80%)\nWriting library : Lavc51.55.0\n\nAudio\nID : 2\nFormat : AAC\nFormat/Info : Advanced Audio Codec\nFormat version : Version 4\nFormat profile : LC\nFormat settings, SBR : No\nCodec ID : 40\nDuration : 2h 32mn\nBit rate mode : Variable\nBit rate : 128 Kbps\nChannel(s) : 2 channels\nChannel positions : Front: L R\nSampling rate : 48.0 KHz\nStream size : 139 MiB (19%)","torrent":{"xt":"urn:btih:2246c653f5109972a82ef966a4f8c7538ae442be","amp;dn":"Batman%3A+The+Dark+Knight+%28THiZZoRDiEuBZs%29","amp;tr":["udp%3A%2F%2Ftracker.openbittorrent.com%3A80","udp%3A%2F%2Fopen.demonii.com%3A1337","udp%3A%2F%2Ftracker.coppersurfer.tk%3A6969","udp%3A%2F%2Fexodus.desync.com%3A6969"],"infoHash":"2246c653f5109972a82ef966a4f8c7538ae442be","infoHashBuffer":{"type":"Buffer","data":[34,70,198,83,245,16,153,114,168,46,249,102,164,248,199,83,138,228,66,190]},"announce":[],"urlList":[]}}